<?xml version="1.0" encoding="UTF-8" standalone="no"?>
<svg
   xmlns:dc="http://purl.org/dc/elements/1.1/"
   xmlns:cc="http://creativecommons.org/ns#"
   xmlns:rdf="http://www.w3.org/1999/02/22-rdf-syntax-ns#"
   xmlns:svg="http://www.w3.org/2000/svg"
   xmlns="http://www.w3.org/2000/svg"
   xmlns:sodipodi="http://sodipodi.sourceforge.net/DTD/sodipodi-0.dtd"
   xmlns:inkscape="http://www.inkscape.org/namespaces/inkscape"
   viewBox="0 0 181.4172 58.204689"
   height="15.4mm"
   width="48mm"
   xml:space="preserve"
   id="svg2"
   version="1.1"
   sodipodi:docname="logo-tpu-text.svg"
   inkscape:version="1.0.1 (3bc2e813f5, 2020-09-07)"><sodipodi:namedview
     pagecolor="#ffffff"
     bordercolor="#666666"
     borderopacity="1"
     objecttolerance="10"
     gridtolerance="10"
     guidetolerance="10"
     inkscape:pageopacity="0"
     inkscape:pageshadow="2"
     inkscape:window-width="1858"
     inkscape:window-height="1057"
     id="namedview10"
     showgrid="false"
     inkscape:zoom="1.615688"
     inkscape:cx="6.3539136"
     inkscape:cy="-44.348989"
     inkscape:window-x="54"
     inkscape:window-y="120"
     inkscape:window-maximized="1"
     inkscape:current-layer="svg2"
     inkscape:document-rotation="0"
     units="mm"
     width="219mm" /><metadata
     id="metadata8"><rdf:RDF><cc:Work
         rdf:about=""><dc:format>image/svg+xml</dc:format><dc:type
           rdf:resource="http://purl.org/dc/dcmitype/StillImage" /><dc:title></dc:title></cc:Work></rdf:RDF></metadata><defs
     id="defs6" /><g
     transform="matrix(1.3333333,0,0,-1.3333333,-90.225657,82.72)"
     id="g10"><g
       transform="scale(0.1)"
       id="g12"><path
         id="path16"
         style="fill:#a7a5a6;fill-opacity:1;fill-rule:evenodd;stroke:none"
         d="m 1579.22,187.922 v 77.402 h 27.53 v 11.16 h -67.76 v -11.16 h 27.53 v -77.402 z m -56.09,0 v 11.172 h -36.93 v 29.179 h 33.62 v 11.172 h -33.62 v 25.879 h 36.93 v 11.16 h -49.61 v -88.562 z m -95.94,0 v 77.402 h 27.54 v 11.16 h -67.76 v -11.16 h 27.53 v -77.402 z m -113.69,0 41.87,68.523 h 0.13 v -68.523 h 12.68 v 88.562 h -13.06 l -41.88,-69.023 h -0.12 v 69.023 h -12.69 v -88.562 z m -34.52,86.277 c -6.47,2.918 -12.94,3.809 -19.92,3.809 -27.03,0 -46.82,-18.02 -46.82,-45.418 0,-28.176 18.65,-46.211 46.69,-46.211 5.2,0 13.45,0.254 20.17,3.191 l -0.76,12.317 c -4.31,-2.668 -13.07,-4.317 -19.28,-4.317 -18.41,0 -33.38,13.828 -33.38,34.637 0,19.922 13.59,34.641 34.02,34.641 6.59,0 12.68,-1.653 18.26,-4.953 z m -126.26,-86.277 v 35.398 h 12.44 c 15.86,0 31.33,6.985 31.33,26.653 0,20.175 -15.09,26.511 -33.24,26.511 h -23.21 v -88.562 z m 10.79,77.402 c 7.74,0 19.54,-4.062 19.54,-15.226 0,-11.68 -9.9,-15.606 -17.77,-15.606 h -12.56 v 30.832 z m -48.48,-77.402 v 11.172 h -36.92 v 29.179 h 33.62 v 11.172 h -33.62 v 25.879 h 36.92 v 11.16 h -49.61 v -88.562 z m -107.99,78.164 c 7.49,0 16.38,-2.668 16.38,-13.203 0,-13.067 -10.54,-14.211 -22.72,-14.211 h -6.977 v 27.414 z m -5.07,-37.813 c 10.91,0 22.96,-1.906 22.96,-15.605 0,-11.801 -10.14,-14.34 -21.69,-14.34 h -9.517 v 29.945 z m 2.66,-40.351 c 18.02,0 33.76,4.695 33.76,23.601 0,12.43 -8.51,20.301 -20.56,21.321 v 0.254 c 11.16,2.918 18.27,8.875 18.27,21.062 0,16.242 -12.68,22.324 -31.09,22.324 h -23.975 v -88.562 z m -106.2,0 41.863,68.523 h 0.129 v -68.523 h 12.691 v 88.562 h -13.074 l -41.863,-69.023 h -0.129 v 69.023 h -12.695 v -88.562 z m -97.461,0 v 40.351 h 42.383 v -40.351 h 12.683 v 88.562 h -12.683 v -37.039 h -42.383 v 37.039 h -12.688 v -88.562 z m -45.559,88.562 -26.765,-52.402 h -0.383 L 702.5,276.484 h -14.844 l 33.875,-65.468 -1.14,-2.539 c -2.032,-4.571 -5.196,-9.766 -12.176,-9.766 -2.414,0 -4.445,0.508 -6.098,1.016 l -0.762,-11.68 c 2.415,-0.399 4.575,-0.906 8.633,-0.906 13.828,0 18.782,11.57 22.844,18.925 l 36.66,70.418 z m 1246.23,167.618 c -2.41,-3.047 -11.04,-4.692 -15.86,-4.692 -4.57,0 -13.2,1.645 -15.48,4.692 l -1.77,-11.293 c 3.04,-2.028 12.81,-3.422 17.25,-3.422 4.69,0 14.72,1.394 17.76,3.422 z m -36.54,-109.375 41.87,68.515 h 0.12 v -68.515 h 12.7 v 88.57 h -13.07 l -41.88,-69.027 h -0.12 v 69.027 h -12.7 v -88.57 z m -97.08,0 41.87,68.515 h 0.13 v -68.515 h 12.69 v 88.57 h -13.07 l -41.87,-69.027 h -0.12 v 69.027 h -12.7 v -88.57 z m -90.47,0 v 43.398 l 39.46,-43.398 h 18.53 l -44.92,46.695 41.62,41.875 h -16.88 l -37.81,-38.957 v 38.957 h -12.69 v -88.57 z m -34.14,86.285 c -6.47,2.918 -12.94,3.804 -19.92,3.804 -27.03,0 -46.82,-18.019 -46.82,-45.421 0,-28.172 18.65,-46.211 46.69,-46.211 5.2,0 13.46,0.254 20.18,3.195 l -0.77,12.305 c -4.31,-2.657 -13.06,-4.309 -19.28,-4.309 -18.4,0 -33.37,13.828 -33.37,34.641 0,19.914 13.57,34.636 34,34.636 6.6,0 12.7,-1.648 18.27,-4.953 z m -87.94,-86.285 v 11.171 h -36.93 v 29.18 h 33.63 v 11.16 h -33.63 v 25.891 h 36.93 v 11.168 h -49.61 v -88.57 z m -90.98,47.836 c -2.03,-0.633 -4.44,-0.887 -6.98,-0.887 -16.37,0 -21.7,10.531 -21.7,27.406 v 14.215 h -12.68 v -15.863 c 0,-24.871 12.55,-36.926 34.38,-36.926 2.41,0 4.82,0.129 6.98,0.508 v -36.289 h 12.69 v 88.57 h -12.69 z m -118.65,-47.836 41.87,68.515 h 0.13 v -68.515 h 12.7 v 88.57 h -13.08 l -41.87,-69.027 h -0.12 v 69.027 h -12.7 v -88.57 z m -97.45,0 v 40.351 h 42.38 v -40.351 h 12.69 v 88.57 h -12.69 v -37.059 h -42.38 v 37.059 h -12.69 v -88.57 z m -98.47,0 25.26,37.558 26.13,-37.558 h 15.98 l -32.73,46.32 29.82,42.25 h -14.47 l -23.47,-34.004 -23.6,34.004 h -15.22 l 29.68,-42.516 -32.6,-46.054 z m -30.71,0 v 11.171 h -36.92 v 29.18 h 33.62 v 11.16 h -33.62 v 25.891 h 36.92 v 11.168 h -49.61 v -88.57 z m -95.93,0 v 77.402 h 27.53 v 11.168 h -67.75 v -11.168 h 27.53 v -77.402 z m -113.7,0 41.88,68.515 h 0.12 v -68.515 h 12.69 v 88.57 h -13.07 l -41.87,-69.027 h -0.13 v 69.027 h -12.684 v -88.57 z m -108.611,-1.543 c 22.703,0 23.972,30.222 23.972,53.437 v 25.508 h 29.571 v -77.402 h 12.683 v 88.57 h -54.937 v -32.106 c 0,-18.906 -0.766,-46.816 -13.574,-46.816 -2.414,0 -5.079,0.242 -8,1.262 v -10.91 c 2.668,-1.036 6.093,-1.543 10.285,-1.543 z m -110.91,45.832 c 0,-26.907 15.605,-45.832 42.636,-45.832 27.024,0 42.625,18.925 42.625,45.832 0,26.261 -15.73,45.8 -42.625,45.8 -26.902,0 -42.636,-19.539 -42.636,-45.8 z m 13.449,0 c 0,18.011 9.644,34.636 29.187,34.636 19.539,0 29.18,-16.625 29.18,-34.636 0,-17.637 -8.879,-34.641 -29.18,-34.641 -20.3,0 -29.187,17.004 -29.187,34.641 z m -50.254,-44.289 h 12.691 v 88.57 h -67.761 v -88.57 h 12.695 v 77.402 h 42.375 z m 570.136,256.179 c -2.41,-3.043 -11.04,-4.695 -15.86,-4.695 -4.57,0 -13.19,1.652 -15.48,4.695 l -1.78,-11.293 c 3.05,-2.023 12.82,-3.425 17.26,-3.425 4.69,0 14.72,1.402 17.76,3.425 z m -36.54,-109.375 41.86,68.52 h 0.14 v -68.52 h 12.68 v 88.567 h -13.06 l -41.88,-69.024 h -0.13 v 69.024 h -12.68 v -88.567 z m -97.07,0 41.86,68.52 h 0.13 v -68.52 h 12.69 v 88.567 h -13.07 l -41.87,-69.024 h -0.13 v 69.024 h -12.69 v -88.567 z m -90.48,0 v 43.395 l 39.46,-43.395 h 18.53 l -44.93,46.696 41.62,41.871 h -16.87 l -37.81,-38.95 v 38.95 h -12.69 v -88.567 z m -34.14,86.285 c -6.47,2.918 -12.94,3.805 -19.93,3.805 -27.02,0 -46.812,-18.016 -46.812,-45.426 0,-28.168 18.652,-46.207 46.692,-46.207 5.2,0 13.45,0.254 20.17,3.196 l -0.76,12.304 c -4.31,-2.66 -13.06,-4.312 -19.29,-4.312 -18.39,0 -33.36,13.836 -33.36,34.64 0,19.922 13.57,34.645 34,34.645 6.6,0 12.69,-1.652 18.27,-4.953 z M 890.559,481.531 v 76.645 h 0.254 l 29.304,-76.645 h 12.442 l 29.304,76.645 h 0.254 v -76.645 h 12.688 v 88.567 h -20.926 l -27.285,-73.594 -27.785,73.594 h -20.938 v -88.567 z m -121.567,44.285 c 0,-26.902 15.61,-45.828 42.641,-45.828 27.019,0 42.625,18.926 42.625,45.828 0,26.262 -15.735,45.805 -42.625,45.805 -26.906,0 -42.641,-19.543 -42.641,-45.805 z m 13.449,0 c 0,18.016 9.649,34.645 29.192,34.645 19.539,0 29.18,-16.629 29.18,-34.645 0,-17.636 -8.879,-34.64 -29.18,-34.64 -20.305,0 -29.192,17.004 -29.192,34.64 z m -54.558,-44.285 v 77.399 h 27.527 v 11.168 H 687.656 V 558.93 h 27.539 v -77.399 h 12.688 v 0" /></g></g></svg>
